<svg xmlns="http://www.w3.org/2000/svg" version="1.1" xmlns:xlink="http://www.w3.org/1999/xlink" xmlns:svgjs="http://svgjs.dev/svgjs" width="2000" height="1065" viewBox="0 0 2000 1065"><g transform="matrix(1,0,0,1,-1.2121212121212466,0.4381322921950641)"><svg viewBox="0 0 396 211" data-background-color="#ffffff" preserveAspectRatio="xMidYMid meet" height="1065" width="2000" xmlns="http://www.w3.org/2000/svg" xmlns:xlink="http://www.w3.org/1999/xlink"><g id="tight-bounds" transform="matrix(1,0,0,1,0.2400000000000091,-0.08680367479169604)"><svg viewBox="0 0 395.52 211.1736073495834" height="211.1736073495834" width="395.52"><g><svg viewBox="0 0 395.52 211.1736073495834" height="211.1736073495834" width="395.52"><g transform="matrix(1,0,0,1,0,107.3440821628778)"><svg viewBox="0 0 395.52 103.82952518670561" height="103.82952518670561" width="395.52"><g id="textblocktransform"><svg viewBox="0 0 395.52 103.82952518670561" height="103.82952518670561" width="395.52" id="textblock"><g><svg viewBox="0 0 395.52 59.106787664914464" height="59.106787664914464" width="395.52"><g transform="matrix(1,0,0,1,0,0)"><svg width="395.52" viewBox="2.1250617504119873 -19.94959259033203 320.0570983886719 47.82954406738281" height="59.106787664914464" data-palette-color="#093d65"><path d="M16.973 16.833c-3.154-0.498-5.945-1.698-8.371-3.599-2.419-1.907-4.193-4.31-5.321-7.208-1.129-2.898-1.43-6.01-0.906-9.335v0c0.524-3.319 1.768-6.177 3.732-8.573 1.964-2.396 4.39-4.126 7.278-5.189 2.894-1.062 5.919-1.344 9.073-0.846v0c3.194 0.504 6.004 1.707 8.431 3.609 2.42 1.901 4.185 4.292 5.296 7.174 1.118 2.883 1.414 5.984 0.89 9.302v0c-0.525 3.325-1.764 6.194-3.717 8.606-1.947 2.413-4.364 4.154-7.253 5.223-2.894 1.062-5.938 1.341-9.132 0.836zM17.737 11.993c2.252 0.355 4.338 0.158 6.259-0.591 1.92-0.75 3.528-1.998 4.822-3.744 1.296-1.753 2.142-3.884 2.538-6.393v0c0.396-2.509 0.246-4.787-0.45-6.833-0.696-2.047-1.844-3.713-3.443-4.998-1.599-1.285-3.525-2.105-5.777-2.461v0c-2.246-0.354-4.327-0.167-6.244 0.563-1.917 0.73-3.522 1.961-4.815 3.695-1.293 1.733-2.137 3.854-2.533 6.363v0c-0.396 2.509-0.248 4.797 0.446 6.863 0.694 2.06 1.839 3.743 3.435 5.047 1.596 1.305 3.517 2.134 5.762 2.489zM72.518-10.918l-4.066 34.199-5.601-0.666-13.819-27.504-3.032 25.5-5.601-0.666 4.067-34.199 5.6 0.666 13.825 27.455 3.027-25.451zM84.856-9.841l-2.556 29.731 11.588 0.996-0.39 4.533-17.206-1.479 2.944-34.264zM100.771-8.59l5.627 0.384-2.346 34.31-5.627-0.385zM141.493-6.745l-1.444 34.41-5.635-0.236-15.878-26.369-1.077 25.657-5.635-0.236 1.444-34.41 5.635 0.236 15.88 26.319 1.075-25.607zM167.179-1.949l-13.36-0.112-0.085 10.089 11.88 0.1-0.039 4.6-11.879-0.1-0.089 10.54 13.36 0.112-0.039 4.6-18.999-0.16 0.289-34.438 18.999 0.159zM185.607 27.821c-2.306 0.052-4.391-0.309-6.256-1.081-1.864-0.765-3.343-1.876-4.435-3.331-1.086-1.463-1.652-3.184-1.696-5.164v0l6.038-0.135c0.16 1.483 0.77 2.69 1.832 3.62 1.061 0.937 2.532 1.384 4.411 1.342v0c1.946-0.044 3.452-0.547 4.517-1.511 1.072-0.964 1.591-2.189 1.558-3.676v0c-0.026-1.153-0.387-2.085-1.082-2.797-0.689-0.711-1.542-1.253-2.557-1.623-1.015-0.377-2.418-0.776-4.208-1.196v0c-2.259-0.543-4.096-1.102-5.509-1.677-1.413-0.582-2.631-1.505-3.653-2.769-1.015-1.264-1.547-2.97-1.594-5.116v0c-0.044-1.973 0.41-3.713 1.363-5.222 0.96-1.508 2.321-2.676 4.083-3.502 1.762-0.833 3.812-1.276 6.152-1.328v0c3.333-0.074 6.08 0.698 8.244 2.316 2.163 1.619 3.394 3.875 3.692 6.77v0l-6.229 0.139c-0.128-1.251-0.748-2.311-1.861-3.179-1.106-0.862-2.549-1.273-4.329-1.234v0c-1.613 0.036-2.923 0.475-3.931 1.318-1.001 0.849-1.485 2.05-1.45 3.604v0c0.024 1.053 0.363 1.909 1.018 2.568 0.662 0.665 1.49 1.184 2.485 1.554 1.002 0.378 2.365 0.777 4.088 1.199v0c2.287 0.576 4.157 1.161 5.61 1.755 1.447 0.594 2.688 1.53 3.724 2.808 1.036 1.284 1.578 3.012 1.626 5.185v0c0.039 1.753-0.394 3.413-1.299 4.98-0.905 1.574-2.247 2.851-4.025 3.831-1.779 0.98-3.888 1.497-6.327 1.552zM200.925-7.416l23.964-1.31 0.252 4.593-9.147 0.5 1.627 29.745-5.632 0.308-1.626-29.745-9.187 0.502zM248.568 24.001c-3.18 0.29-6.179-0.191-8.997-1.441-2.812-1.257-5.12-3.152-6.924-5.685-1.804-2.534-2.858-5.477-3.164-8.83v0c-0.305-3.346 0.202-6.421 1.52-9.226 1.318-2.804 3.247-5.075 5.786-6.812 2.546-1.738 5.409-2.752 8.59-3.041v0c3.22-0.293 6.239 0.185 9.057 1.434 2.812 1.25 5.109 3.136 6.891 5.659 1.789 2.521 2.836 5.455 3.141 8.801v0c0.305 3.353-0.194 6.437-1.497 9.254-1.297 2.816-3.215 5.096-5.753 6.84-2.546 1.738-5.429 2.754-8.65 3.047zM248.124 19.121c2.271-0.207 4.245-0.909 5.923-2.106 1.678-1.197 2.931-2.801 3.76-4.811 0.827-2.017 1.126-4.29 0.895-6.819v0c-0.23-2.53-0.933-4.701-2.109-6.515-1.176-1.814-2.697-3.148-4.562-4.003-1.865-0.854-3.933-1.178-6.204-0.972v0c-2.264 0.206-4.236 0.898-5.916 2.075-1.68 1.177-2.935 2.764-3.764 4.761-0.829 1.997-1.128 4.26-0.898 6.789v0c0.23 2.53 0.934 4.711 2.112 6.546 1.177 1.827 2.699 3.178 4.567 4.052 1.867 0.874 3.932 1.208 6.196 1.003zM296.41 18.178l-6.676 0.853-9.588-12.637-4.276 0.546 1.742 13.639-5.594 0.714-4.357-34.113 11.785-1.504c2.612-0.334 4.886-0.157 6.822 0.53 1.935 0.68 3.451 1.734 4.547 3.159 1.096 1.426 1.765 3.085 2.006 4.976v0c0.285 2.229-0.105 4.335-1.169 6.319-1.058 1.977-2.888 3.464-5.489 4.461v0zM273.839-8.971l1.46 11.437 6.19-0.79c2.09-0.267 3.6-0.991 4.531-2.172 0.931-1.181 1.284-2.657 1.058-4.43v0c-0.225-1.766-0.928-3.081-2.107-3.944-1.172-0.865-2.82-1.162-4.943-0.892v0zM317.495-15.397l-13.194 2.099 1.585 9.965 11.733-1.867 0.723 4.543-11.733 1.867 1.656 10.409 13.194-2.099 0.723 4.543-18.764 2.985-5.411-34.012 18.763-2.986z" opacity="1" transform="matrix(1,0,0,1,0,0)" fill="#000000" class="wordmark-text-0" data-fill-palette-color="primary" id="text-0"></path></svg></g></svg></g><g transform="matrix(1,0,0,1,157.67433585147978,76.67957254577543)"><svg viewBox="0 0 80.17132829704039 27.14995264093018" height="27.14995264093018" width="80.17132829704039"><g transform="matrix(1,0,0,1,0,0)"><svg width="80.17132829704039" viewBox="3.25 -35.70000076293945 106.58999633789062 36.10000228881836" height="27.14995264093018" data-palette-color="#f98e54"><path d="M24.35-33.4L23.4-31.5Q21.85-32.25 19.6-32.9 17.35-33.55 15.1-33.55L15.1-33.55Q11.6-33.55 9.5-31.8 7.4-30.05 7.4-27.4L7.4-27.4Q7.4-25.4 8.6-24.08 9.8-22.75 11.75-21.83 13.7-20.9 15.9-20.05L15.9-20.05Q17.65-19.4 19.38-18.6 21.1-17.8 22.5-16.65 23.9-15.5 24.73-13.8 25.55-12.1 25.55-9.6L25.55-9.6Q25.55-6.65 24.15-4.38 22.75-2.1 20.25-0.85 17.75 0.4 14.45 0.4L14.45 0.4Q11.8 0.4 9.63-0.25 7.45-0.9 5.83-1.78 4.2-2.65 3.25-3.25L3.25-3.25 4.4-5.25Q5.5-4.45 7.08-3.65 8.65-2.85 10.5-2.3 12.35-1.75 14.2-1.75L14.2-1.75Q16.35-1.75 18.38-2.6 20.4-3.45 21.73-5.18 23.05-6.9 23.05-9.55L23.05-9.55Q23.05-12.1 21.8-13.68 20.55-15.25 18.6-16.25 16.65-17.25 14.45-18.05L14.45-18.05Q12.75-18.7 11.05-19.43 9.35-20.15 7.95-21.18 6.55-22.2 5.73-23.65 4.9-25.1 4.9-27.15L4.9-27.15Q4.9-29.7 6.2-31.6 7.5-33.5 9.73-34.58 11.95-35.65 14.8-35.7L14.8-35.7Q17.3-35.7 19.88-35.05 22.45-34.4 24.35-33.4L24.35-33.4ZM35.45-19.3L35.45-28.15 37.85-28.15 37.85-19.3 43.9-19.3 43.9-17.4 37.85-17.4 37.85 0 35.45 0 35.45-17.4 31.3-17.4 31.3-19.3 35.45-19.3ZM47.84-9.9L47.84-9.9Q47.84-12.75 49.22-15.1 50.59-17.45 52.97-18.82 55.34-20.2 58.3-20.2L58.3-20.2Q61.3-20.2 63.65-18.82 66-17.45 67.34-15.1 68.7-12.75 68.7-9.9L68.7-9.9Q68.7-7.05 67.34-4.7 66-2.35 63.62-0.98 61.25 0.4 58.3 0.4L58.3 0.4Q55.3 0.4 52.95-0.93 50.59-2.25 49.22-4.58 47.84-6.9 47.84-9.9ZM50.2-9.85L50.2-9.85Q50.2-7.55 51.27-5.68 52.34-3.8 54.17-2.7 56-1.6 58.25-1.6L58.25-1.6Q60.5-1.6 62.32-2.7 64.15-3.8 65.22-5.68 66.3-7.55 66.3-9.85L66.3-9.85Q66.3-12.15 65.22-14.03 64.15-15.9 62.32-17.03 60.5-18.15 58.25-18.15L58.25-18.15Q55.95-18.15 54.12-16.98 52.3-15.8 51.25-13.9 50.2-12 50.2-9.85ZM75.69-19.55L77.74-19.55 77.99-13.55 77.69-14.3Q78.34-16.1 79.74-17.4 81.14-18.7 82.87-19.4 84.59-20.1 86.19-20.1L86.19-20.1 86.09-17.8Q83.84-17.8 82.02-16.8 80.19-15.8 79.12-14.13 78.04-12.45 78.04-10.35L78.04-10.35 78.04 0 75.69 0 75.69-19.55ZM100.49 0.4L100.49 0.4Q97.44 0.4 95.09-0.95 92.74-2.3 91.42-4.63 90.09-6.95 90.09-9.85L90.09-9.85Q90.09-12.7 91.49-15.05 92.89-17.4 95.27-18.8 97.64-20.2 100.54-20.2L100.54-20.2Q104.04-20.2 106.42-18.15 108.79-16.1 109.84-12.8L109.84-12.8 92.74-6.2 92.04-7.9 107.69-14 107.19-13.3Q106.34-15.3 104.62-16.75 102.89-18.2 100.39-18.2L100.39-18.2Q98.14-18.2 96.34-17.1 94.54-16 93.47-14.15 92.39-12.3 92.39-9.95L92.39-9.95Q92.39-7.75 93.42-5.85 94.44-3.95 96.29-2.8 98.14-1.65 100.54-1.65L100.54-1.65Q102.14-1.65 103.62-2.25 105.09-2.85 106.24-3.8L106.24-3.8 107.44-2.1Q106.04-1 104.22-0.3 102.39 0.4 100.49 0.4Z" opacity="1" transform="matrix(1,0,0,1,0,0)" fill="#000000" class="slogan-text-1" data-fill-palette-color="secondary" id="text-1"></path></svg></g></svg></g></svg></g></svg></g><g transform="matrix(1,0,0,1,145.84466089281426,0)"><svg viewBox="0 0 103.83067821437145 103.82952518670561" height="103.82952518670561" width="103.83067821437145"><g><svg xmlns="http://www.w3.org/2000/svg" xmlns:xlink="http://www.w3.org/1999/xlink" version="1.1" x="0" y="0" viewBox="4.9670000076293945 5 90.0009994506836 90" enable-background="new 0 0 100 100" xml:space="preserve" height="103.82952518670561" width="103.83067821437145" class="icon-icon-0" data-fill-palette-color="accent" id="icon-0"><g fill="#f98e54" data-fill-palette-color="accent"><polygon points="81.588,69.219 76.042,77.733 49.901,5 30.566,58.797 24.486,43.546 4.967,95 17.555,95 45,95 64.794,95 82.249,95    94.968,95  " fill="#000000" data-fill-palette-color="accent"></polygon></g></svg></g></svg></g><g></g></svg></g><defs></defs></svg><rect width="395.52" height="211.1736073495834" fill="none" stroke="none" visibility="hidden"></rect></g></svg></g></svg>